<svg width="95" height="95" viewBox="0 0 95 95" fill="none" xmlns="http://www.w3.org/2000/svg">
<path d="M51.4583 7.91667V11.875H47.5V35.625H43.5417V39.5833H35.625V43.5417H31.6667V47.5H27.7083V51.4583H19.7917V47.5H15.8333V43.5417H11.875V35.625H7.91666V59.375H11.875V63.3333H15.8333V67.2917H19.7917V71.25H23.75V87.0833H31.6667V83.125H27.7083V79.1667H31.6667V75.2083H35.625V71.25H39.5833V75.2083H43.5417V87.0833H51.4583V83.125H47.5V67.2917H51.4583V63.3333H55.4167V59.375H59.375V47.5H63.3333V51.4583H67.2917V43.5417H59.375V35.625H79.1667V31.6667H67.2917V27.7083H87.0833V11.875H83.125V7.91667M55.4167 11.875H59.375V15.8333H55.4167V11.875Z" fill="#FFC700"/>
</svg>
