<svg width="83" height="83" viewBox="0 0 83 83" fill="none" xmlns="http://www.w3.org/2000/svg">
<path d="M17.2917 10.375H65.7083C67.5427 10.375 69.302 11.1037 70.5992 12.4008C71.8963 13.698 72.625 15.4573 72.625 17.2917V65.7083C72.625 67.5412 71.8987 69.305 70.5846 70.5846C69.305 71.8987 67.5412 72.625 65.7083 72.625H17.2917C15.4587 72.625 13.695 71.8987 12.4154 70.5846C11.1012 69.305 10.375 67.5412 10.375 65.7083V17.2917C10.375 13.4529 13.4529 10.375 17.2917 10.375ZM38.0417 31.125H44.9583V24.2083H38.0417V31.125ZM48.4167 58.7917V51.875H44.9583V38.0417H34.5833V44.9583H38.0417V51.875H34.5833V58.7917H48.4167Z" fill="#FFC700"/>
</svg>
