<svg width="65" height="68" viewBox="0 0 65 68" fill="none" xmlns="http://www.w3.org/2000/svg">
<path d="M65 50.0614C65 50.429 64.9889 51.2216 64.9666 51.8419C64.911 53.3468 64.7997 55.2881 64.6216 56.1726C64.3544 57.5051 63.9649 58.7573 63.4418 59.8026C62.8296 61.0432 62.0505 62.146 61.1156 63.0994C60.1918 64.0529 59.1233 64.857 57.9212 65.4888C56.9084 66.0287 55.6841 66.4307 54.3819 66.7064C53.536 66.8787 51.6661 67.0051 50.2192 67.051C49.6182 67.074 48.8502 67.0855 48.494 67.0855H16.4837C16.1276 67.0855 15.3596 67.074 14.7586 67.051C13.3005 66.9936 11.4195 66.8787 10.5625 66.6949C9.2714 66.4193 8.05822 66.0172 7.04538 65.4773C5.84332 64.8455 4.77483 64.0414 3.85103 63.0765C2.92723 62.123 2.14812 61.0202 1.53596 59.7796C1.01284 58.7343 0.623288 57.4707 0.356164 56.1267C0.189212 55.2536 0.0667808 53.3238 0.0222603 51.8304C0.0111301 51.2216 0 50.429 0 50.0614V17.0241C0 16.6565 0.0111301 15.8639 0.0333904 15.2436C0.0890411 13.7387 0.200342 11.7974 0.378425 10.9129C0.645548 9.58036 1.0351 8.32825 1.55822 7.28291C2.17038 6.04229 2.94949 4.93952 3.87329 3.98607C4.79709 3.03263 5.86558 2.22853 7.06764 1.59673C8.08048 1.05683 9.3048 0.654773 10.607 0.379079C11.4529 0.20677 13.3228 0.0804107 14.7697 0.0344617C15.3707 0.0114872 16.1387 0 16.4949 0H48.5051C48.8613 0 49.6293 0.0114872 50.2303 0.0344617C51.6884 0.091898 53.5694 0.20677 54.4264 0.390566C55.7175 0.66626 56.9306 1.06831 57.9435 1.60821C59.1455 2.24001 60.214 3.04412 61.1378 4.00905C62.0616 4.96249 62.8408 6.06527 63.4529 7.30589C63.976 8.35123 64.3656 9.61482 64.6327 10.9588C64.7997 11.8319 64.9221 13.7617 64.9666 15.2551C64.9889 15.8754 65 16.668 65 17.0356V50.0614Z" fill="url(#paint0_linear_4_265)"/>
<path fill-rule="evenodd" clip-rule="evenodd" d="M49.5958 16.0592C45.2217 11.5447 39.4006 9.05194 33.2011 9.05194C20.4237 9.05194 10.0393 19.781 10.0282 32.9569C10.0282 37.1727 11.0967 41.2851 13.1224 44.9036L9.83899 57.2984L22.1267 53.9785C25.5102 55.8854 29.3167 56.8848 33.2011 56.8848H33.2123C45.9785 56.8848 56.3741 46.1557 56.3852 32.9799C56.3852 26.5815 53.97 20.5736 49.5958 16.0592ZM33.2123 52.8413C29.7508 52.8413 26.3561 51.8764 23.4066 50.0729L22.7054 49.6479L15.4152 51.6237L17.363 44.2948L16.9066 43.5481C14.9811 40.3891 13.9571 36.7247 13.9571 32.9684C13.9571 22.0096 22.6053 13.0955 33.2234 13.0955C38.3655 13.0955 43.2071 15.1632 46.8356 18.9195C50.4751 22.6758 52.4785 27.6728 52.4674 32.9799C52.4563 43.9272 43.8193 52.8413 33.2123 52.8413ZM43.7748 37.9653C43.196 37.6667 40.3467 36.2193 39.8236 36.024C39.2893 35.8287 38.9109 35.7253 38.5214 36.3227C38.1318 36.92 37.0299 38.264 36.6849 38.6661C36.351 39.0681 36.0059 39.1141 35.4272 38.8154C34.8484 38.5167 32.9785 37.8849 30.7748 35.8517C29.0496 34.2664 27.8921 32.3136 27.5582 31.7163C27.2243 31.1189 27.5248 30.7973 27.8142 30.4986C28.0702 30.2344 28.3929 29.7979 28.6823 29.4533C28.9717 29.1087 29.0719 28.8559 29.2611 28.4539C29.4503 28.0518 29.3612 27.7072 29.2166 27.4086C29.0719 27.1099 27.9143 24.1692 27.4357 22.9745C26.9683 21.8143 26.4897 21.9636 26.1335 21.9521C25.7996 21.9291 25.4101 21.9291 25.0205 21.9291C24.6309 21.9291 24.0077 22.0785 23.4734 22.6758C22.9392 23.2731 21.4477 24.7205 21.4477 27.6613C21.4477 30.602 23.5179 33.4394 23.8073 33.8414C24.0967 34.2435 27.8921 40.2743 33.702 42.8589C35.0821 43.4792 36.1618 43.8468 37.0077 44.1225C38.3989 44.582 39.6566 44.5131 40.6583 44.3637C41.7714 44.1914 44.0864 42.9163 44.565 41.5264C45.0436 40.1364 45.0436 38.9303 44.8989 38.689C44.732 38.4133 44.3535 38.264 43.7748 37.9653Z" fill="white"/>
<defs>
<linearGradient id="paint0_linear_4_265" x1="32.5025" y1="67.0906" x2="32.5025" y2="0" gradientUnits="userSpaceOnUse">
<stop stop-color="#25CF43"/>
<stop offset="1" stop-color="#61FD7D"/>
</linearGradient>
</defs>
</svg>
